# Blender v2.69 (sub 0) OBJ File: 'LegPieceTextured.blend'
# www.blender.org
mtllib LeftUpperLeg.mtl
o Cube
v 4.172162 1.000000 0.459960
v 4.172162 -1.000000 0.459960
v 5.129354 1.000000 -2.040000
v 5.129354 -1.000000 -2.040000
v 5.129354 1.000000 -0.060000
v 5.129354 -1.000000 -0.060000
v 4.171854 1.000000 0.460000
v 4.171854 -1.000000 0.460000
v 4.171854 1.000000 2.040000
v 5.171854 1.000000 2.040000
v 4.171854 -1.000000 2.040000
v 5.129281 1.000000 -2.040000
v 5.129281 -1.000000 -2.040000
v 6.256854 1.000000 -2.040000
v 7.171854 1.000000 -2.040000
v 7.171854 -1.000000 -2.040000
v 6.256854 -1.000000 -2.040000
v 6.256854 -1.000000 -1.245000
v 6.256854 1.000000 -1.245000
v 7.171854 1.000000 2.040000
v 7.171853 -1.000000 2.040000
v 6.086854 -1.000000 -1.245000
v 6.086854 1.000000 -1.245000
v 6.256854 1.000000 2.040000
v 6.256854 -1.000000 2.040000
v 6.086854 1.000000 -2.040000
v 6.086854 -1.000000 -2.040000
v 6.086854 -1.000000 2.040000
v 4.171853 -0.999999 2.040000
v 6.086854 -1.000000 1.250000
v 6.256854 -1.000000 1.250000
v 4.171854 1.000000 2.040000
v 6.086854 1.000000 2.040000
v 6.086854 1.000000 1.250000
v 6.256854 1.000000 1.250000
v 6.086854 -1.000000 1.250000
v 6.256854 -1.000000 1.250000
vt 0.000000 0.470000
vt -1.000000 0.470000
vt 0.000000 -0.520000
vt 0.585927 0.520000
vt 1.543427 0.125000
vt 0.000000 0.628427
vt 0.000000 1.085927
vt 1.000000 0.628427
vt 1.000000 0.585927
vt 2.000000 0.585927
vt 1.000000 1.543427
vt 0.000000 0.085927
vt -1.000000 0.085927
vt 0.000000 -0.371573
vt 0.000000 0.480000
vt -1.000000 0.480000
vt 0.000000 2.520000
vt 0.000000 0.877500
vt -1.000000 0.877500
vt 1.000000 0.480000
vt 0.000000 0.543427
vt 0.628427 0.520000
vt 0.628427 0.125000
vt 1.085927 0.520000
vt 0.543427 0.125000
vt 0.543427 -1.122500
vt 0.628427 -1.122500
vt 0.000000 0.585927
vt 0.000000 1.064677
vt 0.000000 0.064640
vt 1.000000 0.064640
vt 0.000000 0.064677
vt 0.628427 0.480000
vt 1.085927 0.480000
vt 0.628427 0.877500
vt 0.085927 0.480000
vt -0.371573 0.877500
vt 0.085927 2.520000
vt 0.628427 2.125000
vt 1.085927 2.520000
vt 0.543427 0.520000
vt -0.414073 0.520000
vt 0.585927 -0.270000
vt 0.585927 0.730000
vt 1.064677 0.470000
vt 1.543427 1.125000
vt 0.064677 -0.530000
vt 0.543427 0.480000
vt 0.064677 0.480000
vt 0.543427 0.877500
vt 0.064640 0.480000
vt 0.064677 0.470000
vt 0.064677 -0.520000
vt 0.543427 -0.122500
vt 0.064677 1.470000
vt 1.000000 0.520000
vt 2.000000 0.520000
vt 1.000000 0.125000
vt -0.000000 0.520000
vt 0.000000 0.125000
vt 0.543427 2.125000
vt 1.000000 0.543427
vt 0.000000 -0.270000
vt 1.000000 -0.270000
vt -1.000000 -0.520000
vt 1.000000 1.085927
vt 2.000000 1.543427
vt -1.000000 -0.371573
vt -1.000000 2.520000
vt 1.000000 0.877500
vt 1.000000 1.064677
vt 1.000000 0.064677
vt 0.064640 -0.520000
vt 2.000000 0.125000
vn -1.000000 0.000000 0.000000
vn -0.205030 0.692085 -0.692085
vn 0.000000 0.000000 -1.000000
vn 0.000000 0.000000 1.000000
vn 1.000000 -0.000000 0.000000
vn -0.000000 -1.000000 0.000000
vn -0.477244 0.000000 -0.878771
vn 0.000000 1.000000 -0.000000
vn -1.000000 0.000000 -0.000001
vn -0.000001 -1.000000 -0.000000
vn 0.358517 0.660101 0.660101
vn -0.358517 -0.660101 -0.660101
vn -0.000001 0.000000 1.000000
usemtl None
s off
f 6/1/1 5/2/1 4/3/1
f 9/4/2 32/4/2 34/5/2
f 14/6/3 15/7/3 17/8/3
f 32/9/4 29/10/4 33/11/4
f 21/12/4 20/13/4 25/14/4
f 16/15/5 15/16/5 21/17/5
f 18/18/1 19/19/1 17/15/1
f 26/15/5 23/18/5 27/20/5
f 19/6/3 18/8/3 23/21/3
f 25/22/6 31/23/6 21/24/6
f 36/25/6 22/26/6 18/27/6
f 7/28/7 5/29/7 8/9/7
f 12/30/4 13/31/4 3/32/4
f 30/21/4 28/21/4 36/21/4
f 34/25/8 35/23/8 23/26/8
f 17/33/6 16/34/6 18/35/6
f 19/35/8 15/34/8 14/33/8
f 15/36/8 19/37/8 20/38/8
f 24/22/8 20/24/8 35/23/8
f 19/35/8 35/39/8 20/40/8
f 16/36/6 21/38/6 18/37/6
f 31/23/6 18/27/6 21/24/6
f 28/41/6 29/42/6 36/25/6
f 33/41/8 34/25/8 32/42/8
f 29/4/6 8/43/6 36/5/6
f 8/44/6 6/45/6 36/46/6
f 7/44/8 34/46/8 5/45/8
f 36/25/6 6/47/6 22/26/6
f 34/25/8 23/26/8 5/47/8
f 26/48/8 3/49/8 23/50/8
f 27/48/6 22/50/6 13/51/6
f 6/52/6 4/53/6 22/54/6
f 3/49/8 5/55/8 23/50/8
f 33/56/5 28/57/5 34/58/5
f 35/6/4 34/21/4 37/8/4
f 24/59/1 35/60/1 25/56/1
f 22/50/6 18/35/6 36/61/6
f 31/23/4 36/25/4 37/23/4
f 13/31/3 26/21/3 27/62/3
f 7/63/9 8/64/9 29/56/9
f 5/2/1 3/65/1 4/3/1
f 7/43/8 9/4/8 34/5/8
f 15/7/3 16/66/3 17/8/3
f 29/10/4 28/67/4 33/11/4
f 20/13/4 24/68/4 25/14/4
f 15/16/5 20/69/5 21/17/5
f 19/19/1 14/16/1 17/15/1
f 23/18/5 22/70/5 27/20/5
f 18/8/3 22/62/3 23/21/3
f 37/23/4 36/25/4 31/23/4
f 36/25/10 18/27/10 31/23/10
f 5/29/7 6/71/7 8/9/7
f 13/31/4 4/72/4 3/32/4
f 35/23/8 19/27/8 23/26/8
f 29/42/11 11/42/11 36/25/11
f 11/4/12 29/4/12 36/5/12
f 4/53/8 13/73/8 22/54/8
f 28/57/5 36/74/5 34/58/5
f 34/21/13 36/62/13 37/8/13
f 35/60/4 37/58/4 31/58/4
f 25/56/1 35/60/1 31/58/1
f 36/25/10 18/27/10 37/23/10
f 12/30/3 3/32/3 13/31/3
f 3/32/3 26/21/3 13/31/3
f 9/59/1 7/63/1 29/56/1
f 32/59/4 9/59/4 29/56/4
l 2 1
l 9 10
l 11 9
